M48
METRIC,LZ,000.000
;FILE_FORMAT=3:3
;TYPE=PLATED
;Layer: PTH_Through
;EasyEDA v6.5.9, 2022-09-16 14:53:16
;a67cddfb3fce44daa9051d46cbbcc19f,10
;Gerber Generator version 0.2
;Holesize 1 = 0.305 mm
T01C0.305
%
G05
G90
T01
X024000Y012000
X024000Y014000
X024000Y016000
X024000Y018000
X024000Y020000
X024000Y022000
X024000Y024000
X024000Y026000
X024000Y032000
X024000Y028000
X024000Y030000
X024000Y034000
X024000Y036000
X024000Y038000
X024000Y040000
X024000Y042000
X024000Y044000
X024000Y046000
X024000Y048000
X024000Y050000
X024000Y052000
X001000Y052000
X001000Y050000
X001000Y048000
X001000Y046000
X001000Y044000
X001000Y042000
X001000Y040000
X001000Y038000
X001000Y036000
X001000Y034000
X001000Y030000
X001000Y028000
X001000Y032000
X001000Y026000
X001000Y024000
X001000Y022000
X001000Y020000
X001000Y018000
X001000Y016000
X001000Y014000
X001000Y012000
M30
