G04 Layer: BottomSilkscreenLayer*
G04 EasyEDA v6.5.9, 2022-09-16 14:53:16*
G04 a67cddfb3fce44daa9051d46cbbcc19f,10*
G04 Gerber Generator version 0.2*
G04 Scale: 100 percent, Rotated: No, Reflected: No *
G04 Dimensions in millimeters *
G04 leading zeros omitted , absolute positions ,4 integer and 5 decimal *
%FSLAX45Y45*%
%MOMM*%

%ADD10C,0.0001*%

%LPD*%
G36*
X1242669Y2250490D02*
G01*
X1213358Y2249881D01*
X1184046Y2248408D01*
X1154785Y2246172D01*
X1125626Y2243124D01*
X1096518Y2239213D01*
X1067562Y2234539D01*
X1038758Y2229053D01*
X1010107Y2222754D01*
X981659Y2215642D01*
X953414Y2207768D01*
X925372Y2199081D01*
X897636Y2189632D01*
X870102Y2179421D01*
X842924Y2168398D01*
X829411Y2162657D01*
X802741Y2150516D01*
X776376Y2137664D01*
X750366Y2124049D01*
X724763Y2109774D01*
X699566Y2094738D01*
X674776Y2079040D01*
X650494Y2062632D01*
X626618Y2045563D01*
X603250Y2027783D01*
X580390Y2009444D01*
X558038Y1990394D01*
X536244Y1970786D01*
X515010Y1950567D01*
X494334Y1929739D01*
X474268Y1908352D01*
X454761Y1886407D01*
X435914Y1863953D01*
X417728Y1840941D01*
X400151Y1817471D01*
X383235Y1793493D01*
X366979Y1769059D01*
X351434Y1744167D01*
X336600Y1718868D01*
X322478Y1693164D01*
X309067Y1667103D01*
X296367Y1640636D01*
X284429Y1613814D01*
X273253Y1586738D01*
X262839Y1559306D01*
X253187Y1531569D01*
X244348Y1503629D01*
X240182Y1489557D01*
X232511Y1461262D01*
X225602Y1432712D01*
X219506Y1404061D01*
X214223Y1375206D01*
X209702Y1346200D01*
X206044Y1317091D01*
X203200Y1287881D01*
X201117Y1258620D01*
X199898Y1229309D01*
X199491Y1199997D01*
X199898Y1170686D01*
X201117Y1141374D01*
X203200Y1112113D01*
X206044Y1082903D01*
X209702Y1053795D01*
X214223Y1024788D01*
X219506Y995934D01*
X225602Y967282D01*
X232511Y938733D01*
X240182Y910437D01*
X248666Y882345D01*
X257911Y854506D01*
X267970Y826973D01*
X273253Y813308D01*
X284429Y786180D01*
X296367Y759358D01*
X309067Y732891D01*
X322478Y706831D01*
X336600Y681126D01*
X351434Y655828D01*
X366979Y630936D01*
X383235Y606501D01*
X400151Y582523D01*
X417728Y559054D01*
X435914Y536041D01*
X454761Y513588D01*
X474268Y491642D01*
X494334Y470255D01*
X515010Y449427D01*
X536244Y429209D01*
X558038Y409600D01*
X580390Y390601D01*
X603250Y372211D01*
X626618Y354482D01*
X650494Y337362D01*
X674776Y321005D01*
X699566Y305257D01*
X724763Y290220D01*
X750366Y275945D01*
X776376Y262331D01*
X802741Y249478D01*
X829411Y237337D01*
X856487Y226009D01*
X870102Y220573D01*
X897636Y210362D01*
X925372Y200914D01*
X953414Y192227D01*
X981659Y184353D01*
X1010107Y177241D01*
X1038758Y170942D01*
X1067562Y165455D01*
X1096518Y160782D01*
X1125626Y156870D01*
X1154785Y153822D01*
X1184046Y151587D01*
X1213358Y150164D01*
X1227988Y149707D01*
X1257350Y149504D01*
X1286662Y150164D01*
X1315974Y151587D01*
X1345234Y153822D01*
X1374394Y156870D01*
X1403451Y160782D01*
X1432407Y165455D01*
X1461211Y170942D01*
X1489862Y177241D01*
X1518361Y184353D01*
X1546606Y192227D01*
X1574647Y200914D01*
X1602384Y210362D01*
X1629867Y220573D01*
X1657096Y231597D01*
X1683969Y243332D01*
X1710486Y255828D01*
X1736699Y269036D01*
X1762506Y283006D01*
X1775256Y290220D01*
X1800453Y305257D01*
X1825193Y321005D01*
X1849526Y337362D01*
X1873402Y354482D01*
X1896770Y372211D01*
X1919630Y390601D01*
X1941931Y409600D01*
X1963775Y429209D01*
X1985010Y449427D01*
X2005685Y470255D01*
X2025751Y491642D01*
X2045207Y513588D01*
X2064105Y536041D01*
X2082292Y559054D01*
X2099868Y582523D01*
X2116785Y606501D01*
X2133041Y630936D01*
X2148586Y655828D01*
X2163419Y681126D01*
X2177542Y706831D01*
X2190953Y732891D01*
X2203602Y759358D01*
X2209698Y772718D01*
X2221230Y799693D01*
X2232050Y826973D01*
X2242058Y854506D01*
X2251303Y882345D01*
X2255672Y896366D01*
X2263749Y924560D01*
X2271064Y953008D01*
X2277567Y981608D01*
X2283256Y1010361D01*
X2288133Y1039266D01*
X2292197Y1068324D01*
X2295499Y1097483D01*
X2297938Y1126744D01*
X2299563Y1156004D01*
X2300376Y1185316D01*
X2300376Y1214678D01*
X2299563Y1243990D01*
X2297938Y1273302D01*
X2295499Y1302512D01*
X2292197Y1331671D01*
X2288133Y1360728D01*
X2283256Y1389634D01*
X2277567Y1418386D01*
X2271064Y1447038D01*
X2263749Y1475435D01*
X2255672Y1503629D01*
X2246782Y1531569D01*
X2237130Y1559306D01*
X2226716Y1586738D01*
X2215540Y1613814D01*
X2209698Y1627276D01*
X2197354Y1653895D01*
X2184349Y1680159D01*
X2170582Y1706067D01*
X2156053Y1731568D01*
X2148586Y1744167D01*
X2133041Y1769059D01*
X2116785Y1793493D01*
X2099868Y1817471D01*
X2082292Y1840941D01*
X2064105Y1863953D01*
X2045207Y1886407D01*
X2025751Y1908352D01*
X2005685Y1929739D01*
X1985010Y1950567D01*
X1963775Y1970786D01*
X1941931Y1990394D01*
X1919630Y2009444D01*
X1896770Y2027783D01*
X1873402Y2045563D01*
X1849526Y2062632D01*
X1825193Y2079040D01*
X1800453Y2094738D01*
X1775256Y2109774D01*
X1749653Y2124049D01*
X1723643Y2137664D01*
X1697278Y2150516D01*
X1670557Y2162657D01*
X1643532Y2173986D01*
X1616202Y2184603D01*
X1588566Y2194458D01*
X1560626Y2203500D01*
X1546606Y2207768D01*
X1518361Y2215642D01*
X1489862Y2222754D01*
X1461211Y2229053D01*
X1432407Y2234539D01*
X1403451Y2239213D01*
X1374394Y2243124D01*
X1345234Y2246172D01*
X1315974Y2248408D01*
X1286662Y2249881D01*
X1257350Y2250490D01*
G37*
G36*
X1243177Y6250482D02*
G01*
X1213815Y6249873D01*
X1184554Y6248400D01*
X1155293Y6246164D01*
X1126134Y6243116D01*
X1097026Y6239205D01*
X1068070Y6234531D01*
X1039266Y6229045D01*
X1010615Y6222746D01*
X982167Y6215634D01*
X953922Y6207760D01*
X925880Y6199073D01*
X898093Y6189624D01*
X870610Y6179413D01*
X843432Y6168390D01*
X829919Y6162649D01*
X803198Y6150508D01*
X776833Y6137656D01*
X750874Y6124041D01*
X725271Y6109766D01*
X700074Y6094730D01*
X675284Y6079032D01*
X650951Y6062624D01*
X627126Y6045504D01*
X615391Y6036767D01*
X592226Y6018682D01*
X569671Y5999988D01*
X547573Y5980684D01*
X526034Y5960719D01*
X505104Y5940196D01*
X484733Y5919114D01*
X464921Y5897422D01*
X445770Y5875223D01*
X427228Y5852515D01*
X409346Y5829249D01*
X392074Y5805525D01*
X375513Y5781344D01*
X359613Y5756656D01*
X344424Y5731560D01*
X329946Y5706059D01*
X316179Y5680151D01*
X303123Y5653887D01*
X290830Y5627268D01*
X279247Y5600293D01*
X268478Y5573014D01*
X258419Y5545480D01*
X249174Y5517642D01*
X240690Y5489549D01*
X236728Y5475427D01*
X229463Y5447030D01*
X222961Y5418378D01*
X217271Y5389626D01*
X212344Y5360720D01*
X208279Y5331663D01*
X205028Y5302504D01*
X202539Y5273294D01*
X200914Y5243982D01*
X200101Y5214670D01*
X200101Y5185308D01*
X200914Y5155996D01*
X202539Y5126685D01*
X205028Y5097475D01*
X208279Y5068316D01*
X212344Y5039258D01*
X217271Y5010353D01*
X222961Y4981600D01*
X229463Y4952949D01*
X236728Y4924552D01*
X244856Y4896358D01*
X253695Y4868418D01*
X263347Y4840681D01*
X273761Y4813300D01*
X284937Y4786172D01*
X296875Y4759350D01*
X309575Y4732883D01*
X322986Y4706823D01*
X337108Y4681118D01*
X351942Y4655820D01*
X367487Y4630928D01*
X383692Y4606493D01*
X400608Y4582515D01*
X418185Y4559046D01*
X436422Y4536033D01*
X455269Y4513580D01*
X474776Y4491634D01*
X494842Y4470247D01*
X515518Y4449419D01*
X536752Y4429201D01*
X558546Y4409592D01*
X580898Y4390542D01*
X603758Y4372203D01*
X615391Y4363212D01*
X638962Y4345838D01*
X663041Y4329074D01*
X687628Y4313021D01*
X712622Y4297629D01*
X738022Y4282998D01*
X763828Y4269028D01*
X789990Y4255820D01*
X816508Y4243324D01*
X829919Y4237329D01*
X856996Y4226001D01*
X870610Y4220565D01*
X898093Y4210354D01*
X925880Y4200906D01*
X953922Y4192219D01*
X982167Y4184345D01*
X1010615Y4177233D01*
X1039266Y4170934D01*
X1068070Y4165447D01*
X1097026Y4160774D01*
X1126134Y4156862D01*
X1155293Y4153814D01*
X1184554Y4151579D01*
X1213815Y4150106D01*
X1243177Y4149496D01*
X1272489Y4149699D01*
X1287170Y4150106D01*
X1316482Y4151579D01*
X1345692Y4153814D01*
X1374902Y4156862D01*
X1403959Y4160774D01*
X1432915Y4165447D01*
X1461719Y4170934D01*
X1490370Y4177233D01*
X1518818Y4184345D01*
X1547114Y4192219D01*
X1575104Y4200906D01*
X1602892Y4210354D01*
X1630375Y4220565D01*
X1657604Y4231589D01*
X1684477Y4243324D01*
X1710994Y4255820D01*
X1737207Y4269028D01*
X1763014Y4282998D01*
X1788414Y4297629D01*
X1813407Y4313021D01*
X1837943Y4329074D01*
X1862023Y4345838D01*
X1885645Y4363212D01*
X1908759Y4381296D01*
X1931365Y4399991D01*
X1953412Y4419295D01*
X1974951Y4439259D01*
X1985518Y4449419D01*
X2006142Y4470247D01*
X2026259Y4491634D01*
X2045716Y4513580D01*
X2064562Y4536033D01*
X2082800Y4559046D01*
X2100376Y4582515D01*
X2117293Y4606493D01*
X2133498Y4630928D01*
X2149043Y4655820D01*
X2163876Y4681118D01*
X2178050Y4706823D01*
X2191461Y4732883D01*
X2204110Y4759350D01*
X2216048Y4786172D01*
X2227224Y4813300D01*
X2237638Y4840681D01*
X2247290Y4868418D01*
X2256180Y4896358D01*
X2264257Y4924552D01*
X2268016Y4938725D01*
X2274874Y4967274D01*
X2280970Y4995926D01*
X2286304Y5024780D01*
X2290775Y5053787D01*
X2294432Y5082895D01*
X2296007Y5097475D01*
X2298446Y5126685D01*
X2300071Y5155996D01*
X2300884Y5185308D01*
X2300884Y5214670D01*
X2300071Y5243982D01*
X2298446Y5273294D01*
X2296007Y5302504D01*
X2292705Y5331663D01*
X2288641Y5360720D01*
X2286304Y5375198D01*
X2280970Y5404053D01*
X2274874Y5432704D01*
X2268016Y5461254D01*
X2260295Y5489549D01*
X2256180Y5503621D01*
X2247290Y5531561D01*
X2237638Y5559298D01*
X2227224Y5586679D01*
X2216048Y5613806D01*
X2204110Y5640628D01*
X2191461Y5667095D01*
X2178050Y5693156D01*
X2163876Y5718860D01*
X2149043Y5744159D01*
X2133498Y5769051D01*
X2117293Y5793486D01*
X2100376Y5817463D01*
X2082800Y5840933D01*
X2064562Y5863945D01*
X2045716Y5886399D01*
X2026259Y5908344D01*
X2006142Y5929731D01*
X1985518Y5950559D01*
X1964232Y5970778D01*
X1942439Y5990386D01*
X1920087Y6009436D01*
X1897227Y6027775D01*
X1885645Y6036767D01*
X1862023Y6054140D01*
X1837943Y6070904D01*
X1813407Y6086957D01*
X1788414Y6102350D01*
X1763014Y6116980D01*
X1737207Y6130950D01*
X1710994Y6144158D01*
X1684477Y6156655D01*
X1657604Y6168390D01*
X1630375Y6179413D01*
X1602892Y6189624D01*
X1575104Y6199073D01*
X1547114Y6207760D01*
X1518818Y6215634D01*
X1490370Y6222746D01*
X1461719Y6229045D01*
X1432915Y6234531D01*
X1403959Y6239205D01*
X1374902Y6243116D01*
X1345692Y6246164D01*
X1316482Y6248400D01*
X1287170Y6249873D01*
X1257808Y6250482D01*
G37*
G36*
X199999Y5199989D02*
G01*
X2299995Y5199989D01*
X2299995Y1199997D01*
X199999Y1199997D01*
G37*
M02*
